# xmcd
#
# Track frame offsets: 
#        150
#        11438
#        22147
#        32790
#        44855
#        57871
#        67465
#        79881
#        92174
#        106317
#        118355
#        133187
#        144465
#        156626
#        170115
#        182025
#
# Disc length: 2622 seconds
#
# Revision: 1
# Processed by: cddbd v1.5.2PL0 Copyright (c) Steve Scherf et al.
# Submitted via: ExactAudioCopy v0.95b4
#
DISCID=fb0a3c10
DTITLE=Otis Redding - The Very Best Of
DYEAR=1992
DGENRE=Blues
TTITLE0=These Arms Of Mine
TTITLE1=Pain in My Heart
TTITLE2=That's how Sweet My Love Is
TTITLE3=Mr. Pitiful
TTITLE4=I've Been Loving You Too Long (To Stop Now)
TTITLE5=Respect
TTITLE6=I Can't Turn You Lose
TTITLE7=Satisfaction
TTITLE8=My Lover's Prayer
TTITLE9=Fa-Fa-Fa-Fa-Fa (Sad Song)
TTITLE10=Try a Little Tenderness
TTITLE11=Shake
TTITLE12=The Happy Song (Dum Dum)
TTITLE13=Tramp
TTITLE14=(Sittin' On) The Dock Of The Bay
TTITLE15=I've Got Dreams To Remember
EXTD=hott
EXTT0=
EXTT1=
EXTT2=
EXTT3=
EXTT4=
EXTT5=
EXTT6=
EXTT7=
EXTT8=
EXTT9=
EXTT10=
EXTT11=
EXTT12=
EXTT13=
EXTT14=
EXTT15=
PLAYORDER=
